<?xml version="1.0" encoding="UTF-8"?>
<!DOCTYPE svg PUBLIC "-//W3C//DTD SVG 1.1//EN" "http://www.w3.org/Graphics/SVG/1.1/DTD/svg11.dtd">
<svg xmlns="http://www.w3.org/2000/svg" version="1.1" width="920px" height="960px" style="shape-rendering:geometricPrecision; text-rendering:geometricPrecision; image-rendering:optimizeQuality; fill-rule:evenodd; clip-rule:evenodd" xmlns:xlink="http://www.w3.org/1999/xlink">
<g><path style="opacity:1" fill="#f6f6f6" d="M -0.5,-0.5 C 306.167,-0.5 612.833,-0.5 919.5,-0.5C 919.5,319.5 919.5,639.5 919.5,959.5C 612.833,959.5 306.167,959.5 -0.5,959.5C -0.5,639.5 -0.5,319.5 -0.5,-0.5 Z"/></g>
<g><path style="opacity:1" fill="#f8f39b" d="M 735.5,150.5 C 731.779,175.879 727.779,201.212 723.5,226.5C 692.5,226.5 661.5,226.5 630.5,226.5C 630.667,194.832 630.5,163.165 630,131.5C 627.393,123.225 621.893,118.059 613.5,116C 594.5,115.333 575.5,115.333 556.5,116C 549.242,118.924 544.408,124.091 542,131.5C 541.5,146.496 541.333,161.496 541.5,176.5C 538.464,168.467 532.798,163.134 524.5,160.5C 516.678,147.528 508.845,134.528 501,121.5C 490.844,114.155 480.344,113.655 469.5,120C 446.101,133.698 422.435,146.865 398.5,159.5C 347.664,159.168 296.997,159.501 246.5,160.5C 237.688,162.475 231.855,167.808 229,176.5C 228.5,193.163 228.333,209.83 228.5,226.5C 204.498,226.333 180.498,226.5 156.5,227C 143.442,231.614 137.942,240.781 140,254.5C 155.636,343.688 170.636,433.021 185,522.5C 187.041,530.876 192.207,536.376 200.5,539C 357.5,539.5 514.5,539.667 671.5,539.5C 667.448,561.76 663.782,584.093 660.5,606.5C 514.5,606.333 368.5,606.5 222.5,607C 206.188,614.791 202.355,626.624 211,642.5C 214.527,646.846 219.027,649.512 224.5,650.5C 251.167,651.167 277.833,651.833 304.5,652.5C 278.537,658.96 261.37,674.96 253,700.5C 246.397,743.147 263.564,770.98 304.5,784C 343.508,788.261 369.675,772.094 383,735.5C 389.961,698.922 376.794,672.422 343.5,656C 339.571,654.523 335.571,653.356 331.5,652.5C 419.167,651.167 506.833,651.167 594.5,652.5C 568.109,659.056 550.942,675.389 543,701.5C 536.945,738.562 550.779,765.062 584.5,781C 615.276,790.019 641.109,782.519 662,758.5C 681.833,727.322 679.666,697.822 655.5,670C 645.984,660.741 634.65,654.908 621.5,652.5C 646.833,651.833 672.167,651.167 697.5,650.5C 722.936,497.673 748.603,345.006 774.5,192.5C 841.176,279.168 868.676,377.168 857,486.5C 837.344,622.412 768.177,724.245 649.5,792C 545.012,845.374 437.012,853.707 325.5,817C 222.471,778.639 146.637,710.139 98,611.5C 52.1574,509.686 47.4908,406.019 84,300.5C 135.107,173.033 226.607,90.1993 358.5,52C 459.065,27.6566 555.398,38.9899 647.5,86C 679.92,103.368 709.253,124.868 735.5,150.5 Z"/></g>
<g><path style="opacity:1" fill="#fdcb67" d="M 524.5,160.5 C 529.679,170.202 535.345,179.535 541.5,188.5C 541.5,201.167 541.5,213.833 541.5,226.5C 455.167,226.5 368.833,226.5 282.5,226.5C 320.465,204.849 358.465,183.182 396.5,161.5C 397.5,161.167 398.167,160.5 398.5,159.5C 422.435,146.865 446.101,133.698 469.5,120C 480.344,113.655 490.844,114.155 501,121.5C 508.845,134.528 516.678,147.528 524.5,160.5 Z"/></g>
<g><path style="opacity:1" fill="#ef7162" d="M 630.5,226.5 C 600.833,226.5 571.167,226.5 541.5,226.5C 541.5,213.833 541.5,201.167 541.5,188.5C 541.5,184.5 541.5,180.5 541.5,176.5C 541.333,161.496 541.5,146.496 542,131.5C 544.408,124.091 549.242,118.924 556.5,116C 575.5,115.333 594.5,115.333 613.5,116C 621.893,118.059 627.393,123.225 630,131.5C 630.5,163.165 630.667,194.832 630.5,226.5 Z"/></g>
<g><path style="opacity:1" fill="#cccbcb" d="M 774.5,192.5 C 748.603,345.006 722.936,497.673 697.5,650.5C 669.328,650.169 641.328,650.502 613.5,651.5C 608.833,651.5 604.167,651.5 599.5,651.5C 507.833,650.167 416.167,650.167 324.5,651.5C 320.167,651.5 315.833,651.5 311.5,651.5C 282.671,650.502 253.671,650.169 224.5,650.5C 219.027,649.512 214.527,646.846 211,642.5C 202.355,626.624 206.188,614.791 222.5,607C 368.5,606.5 514.5,606.333 660.5,606.5C 663.782,584.093 667.448,561.76 671.5,539.5C 673.751,524.488 676.085,509.488 678.5,494.5C 681.32,480.043 683.653,465.376 685.5,450.5C 672.833,450.5 660.167,450.5 647.5,450.5C 660.323,449.505 673.323,449.171 686.5,449.5C 689.019,434.864 691.353,420.197 693.5,405.5C 695.818,391.63 698.151,377.63 700.5,363.5C 701.404,362.791 701.737,361.791 701.5,360.5C 703.834,345.828 706.167,331.161 708.5,316.5C 708.5,316.167 708.5,315.833 708.5,315.5C 711.048,300.878 713.381,286.212 715.5,271.5C 718.469,257.148 721.136,242.648 723.5,228C 575.999,227.833 428.666,227.333 281.5,226.5C 281.833,226.5 282.167,226.5 282.5,226.5C 368.833,226.5 455.167,226.5 541.5,226.5C 571.167,226.5 600.833,226.5 630.5,226.5C 661.5,226.5 692.5,226.5 723.5,226.5C 727.779,201.212 731.779,175.879 735.5,150.5C 738.452,139.126 740.452,127.459 741.5,115.5C 773.502,115.333 805.502,115.5 837.5,116C 853.596,123.046 857.763,134.546 850,150.5C 847.408,153.762 844.241,156.262 840.5,158C 820.234,159.465 799.901,159.965 779.5,159.5C 777.367,170.429 775.701,181.429 774.5,192.5 Z"/></g>
<g><path style="opacity:1" fill="#b7a0a8" d="M 246.5,160.5 C 296.997,159.501 347.664,159.168 398.5,159.5C 398.167,160.5 397.5,161.167 396.5,161.5C 346.669,160.501 296.669,160.168 246.5,160.5 Z"/></g>
<g><path style="opacity:1" fill="#9b7dac" d="M 246.5,160.5 C 296.669,160.168 346.669,160.501 396.5,161.5C 358.465,183.182 320.465,204.849 282.5,226.5C 282.167,226.5 281.833,226.5 281.5,226.5C 263.833,226.5 246.167,226.5 228.5,226.5C 228.333,209.83 228.5,193.163 229,176.5C 231.855,167.808 237.688,162.475 246.5,160.5 Z"/></g>
<g><path style="opacity:1" fill="#a181aa" d="M 524.5,160.5 C 532.798,163.134 538.464,168.467 541.5,176.5C 541.5,180.5 541.5,184.5 541.5,188.5C 535.345,179.535 529.679,170.202 524.5,160.5 Z"/></g>
<g><path style="opacity:1" fill="#47a0d7" d="M 228.5,226.5 C 246.167,226.5 263.833,226.5 281.5,226.5C 428.666,227.333 575.999,227.833 723.5,228C 721.136,242.648 718.469,257.148 715.5,271.5C 697.833,271.5 680.167,271.5 662.5,271.5C 661.398,284.825 660.398,298.158 659.5,311.5C 658.549,312.919 658.216,314.585 658.5,316.5C 675.167,316.5 691.833,316.5 708.5,316.5C 706.167,331.161 703.834,345.828 701.5,360.5C 685.833,360.5 670.167,360.5 654.5,360.5C 654.5,361.833 654.5,363.167 654.5,364.5C 653.335,378.153 652.335,391.819 651.5,405.5C 665.5,405.5 679.5,405.5 693.5,405.5C 691.353,420.197 689.019,434.864 686.5,449.5C 673.323,449.171 660.323,449.505 647.5,450.5C 645.701,464.98 644.368,479.646 643.5,494.5C 655.167,494.5 666.833,494.5 678.5,494.5C 676.085,509.488 673.751,524.488 671.5,539.5C 514.5,539.667 357.5,539.5 200.5,539C 192.207,536.376 187.041,530.876 185,522.5C 170.636,433.021 155.636,343.688 140,254.5C 137.942,240.781 143.442,231.614 156.5,227C 180.498,226.5 204.498,226.333 228.5,226.5 Z"/></g>
<g><path style="opacity:1" fill="#f7f29b" d="M 228.5,271.5 C 228.5,272.5 228.5,273.5 228.5,274.5C 228.5,288.167 228.5,301.833 228.5,315.5C 228.5,315.833 228.5,316.167 228.5,316.5C 217.5,316.5 206.5,316.5 195.5,316.5C 192.842,301.549 190.508,286.549 188.5,271.5C 201.833,271.5 215.167,271.5 228.5,271.5 Z"/></g>
<g><path style="opacity:1" fill="#f8c96b" d="M 228.5,271.5 C 233.167,271.5 237.833,271.5 242.5,271.5C 243.431,281.481 244.098,291.481 244.5,301.5C 239.597,294.036 234.93,286.369 230.5,278.5C 230.34,276.847 229.674,275.514 228.5,274.5C 228.5,273.5 228.5,272.5 228.5,271.5 Z"/></g>
<g><path style="opacity:1" fill="#fbcb68" d="M 287.5,271.5 C 305.167,271.5 322.833,271.5 340.5,271.5C 340.5,286.5 340.5,301.5 340.5,316.5C 324.163,316.667 307.83,316.5 291.5,316C 289.97,301.233 288.637,286.4 287.5,271.5 Z"/></g>
<g><path style="opacity:1" fill="#fdcb67" d="M 385.5,271.5 C 400.167,271.5 414.833,271.5 429.5,271.5C 429.5,286.167 429.5,300.833 429.5,315.5C 429.5,300.833 429.5,286.167 429.5,271.5C 414.833,271.5 400.167,271.5 385.5,271.5 Z"/></g>
<g><path style="opacity:1" fill="#fdcb67" d="M 518.5,271.5 C 518.5,286.167 518.5,300.833 518.5,315.5C 503.833,315.5 489.167,315.5 474.5,315.5C 474.5,300.833 474.5,286.167 474.5,271.5C 489.167,271.5 503.833,271.5 518.5,271.5 Z"/></g>
<g><path style="opacity:1" fill="#ee7162" d="M 564.5,271.5 C 582.167,271.5 599.833,271.5 617.5,271.5C 616.454,286.338 615.121,301.005 613.5,315.5C 597.167,315.5 580.833,315.5 564.5,315.5C 564.5,300.833 564.5,286.167 564.5,271.5 Z"/></g>
<g><path style="opacity:1" fill="#f8f39b" d="M 715.5,271.5 C 713.381,286.212 711.048,300.878 708.5,315.5C 692.167,315.5 675.833,315.5 659.5,315.5C 659.5,314.167 659.5,312.833 659.5,311.5C 660.398,298.158 661.398,284.825 662.5,271.5C 680.167,271.5 697.833,271.5 715.5,271.5 Z"/></g>
<g><path style="opacity:1" fill="#b59da8" d="M 228.5,274.5 C 229.674,275.514 230.34,276.847 230.5,278.5C 229.833,290.833 229.167,303.167 228.5,315.5C 228.5,301.833 228.5,288.167 228.5,274.5 Z"/></g>
<g><path style="opacity:1" fill="#9a7ead" d="M 230.5,278.5 C 234.93,286.369 239.597,294.036 244.5,301.5C 245.248,306.485 245.915,311.485 246.5,316.5C 240.5,316.5 234.5,316.5 228.5,316.5C 228.5,316.167 228.5,315.833 228.5,315.5C 229.167,303.167 229.833,290.833 230.5,278.5 Z"/></g>
<g><path style="opacity:1" fill="#b1b79b" d="M 385.5,271.5 C 385.5,286.167 385.5,300.833 385.5,315.5C 400.167,315.5 414.833,315.5 429.5,315.5C 414.676,316.496 399.676,316.829 384.5,316.5C 384.171,301.324 384.504,286.324 385.5,271.5 Z"/></g>
<g><path style="opacity:1" fill="#b8b997" d="M 518.5,271.5 C 519.496,286.324 519.829,301.324 519.5,316.5C 504.324,316.829 489.324,316.496 474.5,315.5C 489.167,315.5 503.833,315.5 518.5,315.5C 518.5,300.833 518.5,286.167 518.5,271.5 Z"/></g>
<g><path style="opacity:1" fill="#b98289" d="M 564.5,271.5 C 564.5,286.167 564.5,300.833 564.5,315.5C 580.833,315.5 597.167,315.5 613.5,315.5C 597.008,316.497 580.342,316.83 563.5,316.5C 563.171,301.324 563.504,286.324 564.5,271.5 Z"/></g>
<g><path style="opacity:1" fill="#b5d0b4" d="M 659.5,311.5 C 659.5,312.833 659.5,314.167 659.5,315.5C 675.833,315.5 692.167,315.5 708.5,315.5C 708.5,315.833 708.5,316.167 708.5,316.5C 691.833,316.5 675.167,316.5 658.5,316.5C 658.216,314.585 658.549,312.919 659.5,311.5 Z"/></g>
<g><path style="opacity:1" fill="#b9d2b3" d="M 228.5,360.5 C 228.5,360.833 228.5,361.167 228.5,361.5C 219.766,360.865 211.433,361.532 203.5,363.5C 202.596,362.791 202.263,361.791 202.5,360.5C 211.167,360.5 219.833,360.5 228.5,360.5 Z"/></g>
<g><path style="opacity:1" fill="#bdd3b2" d="M 701.5,360.5 C 701.737,361.791 701.404,362.791 700.5,363.5C 685.871,361.516 670.871,360.85 655.5,361.5C 655.737,362.791 655.404,363.791 654.5,364.5C 654.5,363.167 654.5,361.833 654.5,360.5C 670.167,360.5 685.833,360.5 701.5,360.5 Z"/></g>
<g><path style="opacity:1" fill="#f7f39b" d="M 228.5,361.5 C 228.5,376.167 228.5,390.833 228.5,405.5C 222.167,405.5 215.833,405.5 209.5,405.5C 207.935,391.441 205.935,377.441 203.5,363.5C 211.433,361.532 219.766,360.865 228.5,361.5 Z"/></g>
<g><path style="opacity:1" fill="#9b7ead" d="M 228.5,360.5 C 235.833,360.5 243.167,360.5 250.5,360.5C 251.551,375.496 252.551,390.496 253.5,405.5C 245.167,405.5 236.833,405.5 228.5,405.5C 228.5,390.833 228.5,376.167 228.5,361.5C 228.5,361.167 228.5,360.833 228.5,360.5 Z"/></g>
<g><path style="opacity:1" fill="#fdcb67" d="M 295.5,361.5 C 310.167,361.5 324.833,361.5 339.5,361.5C 339.5,375.833 339.5,390.167 339.5,404.5C 327.833,404.5 316.167,404.5 304.5,404.5C 302.485,401.131 300.485,397.798 298.5,394.5C 296.897,383.604 295.897,372.604 295.5,361.5 Z"/></g>
<g><path style="opacity:1" fill="#a6b5a2" d="M 429.5,361.5 C 414.833,361.5 400.167,361.5 385.5,361.5C 385.5,376.167 385.5,390.833 385.5,405.5C 384.504,390.676 384.171,375.676 384.5,360.5C 399.676,360.171 414.676,360.504 429.5,361.5 Z"/></g>
<g><path style="opacity:1" fill="#fdcb67" d="M 429.5,361.5 C 429.5,376.167 429.5,390.833 429.5,405.5C 414.833,405.5 400.167,405.5 385.5,405.5C 385.5,390.833 385.5,376.167 385.5,361.5C 400.167,361.5 414.833,361.5 429.5,361.5 Z"/></g>
<g><path style="opacity:1" fill="#fdcb67" d="M 474.5,361.5 C 489.167,361.5 503.833,361.5 518.5,361.5C 518.5,376.167 518.5,390.833 518.5,405.5C 518.5,390.833 518.5,376.167 518.5,361.5C 503.833,361.5 489.167,361.5 474.5,361.5 Z"/></g>
<g><path style="opacity:1" fill="#b3b89a" d="M 474.5,361.5 C 489.324,360.504 504.324,360.171 519.5,360.5C 519.829,375.676 519.496,390.676 518.5,405.5C 518.5,390.833 518.5,376.167 518.5,361.5C 503.833,361.5 489.167,361.5 474.5,361.5 Z"/></g>
<g><path style="opacity:1" fill="#bd8085" d="M 609.5,363.5 C 594.871,361.516 579.871,360.85 564.5,361.5C 564.5,376.167 564.5,390.833 564.5,405.5C 563.504,390.676 563.171,375.676 563.5,360.5C 579.167,360.5 594.833,360.5 610.5,360.5C 610.737,361.791 610.404,362.791 609.5,363.5 Z"/></g>
<g><path style="opacity:1" fill="#ee7162" d="M 609.5,363.5 C 608.169,377.474 607.169,391.474 606.5,405.5C 592.5,405.5 578.5,405.5 564.5,405.5C 564.5,390.833 564.5,376.167 564.5,361.5C 579.871,360.85 594.871,361.516 609.5,363.5 Z"/></g>
<g><path style="opacity:1" fill="#f8f39b" d="M 700.5,363.5 C 698.151,377.63 695.818,391.63 693.5,405.5C 679.5,405.5 665.5,405.5 651.5,405.5C 652.335,391.819 653.335,378.153 654.5,364.5C 655.404,363.791 655.737,362.791 655.5,361.5C 670.871,360.85 685.871,361.516 700.5,363.5 Z"/></g>
<g><path style="opacity:1" fill="#9c80ac" d="M 298.5,394.5 C 300.485,397.798 302.485,401.131 304.5,404.5C 304.5,404.833 304.5,405.167 304.5,405.5C 302.5,405.5 300.5,405.5 298.5,405.5C 298.5,401.833 298.5,398.167 298.5,394.5 Z"/></g>
<g><path style="opacity:1" fill="#dec27e" d="M 295.5,361.5 C 310.324,360.504 325.324,360.171 340.5,360.5C 340.5,375.5 340.5,390.5 340.5,405.5C 328.5,405.5 316.5,405.5 304.5,405.5C 304.5,405.167 304.5,404.833 304.5,404.5C 316.167,404.5 327.833,404.5 339.5,404.5C 339.5,390.167 339.5,375.833 339.5,361.5C 324.833,361.5 310.167,361.5 295.5,361.5 Z"/></g>
<g><path style="opacity:1" fill="#87bbc5" d="M 228.5,450.5 C 225.167,450.5 221.833,450.5 218.5,450.5C 218.5,451.833 218.5,453.167 218.5,454.5C 217.549,453.081 217.216,451.415 217.5,449.5C 221.371,449.185 225.038,449.518 228.5,450.5 Z"/></g>
<g><path style="opacity:1" fill="#91b0af" d="M 474.5,450.5 C 489.324,449.504 504.324,449.171 519.5,449.5C 519.826,458.017 519.493,466.35 518.5,474.5C 518.5,466.5 518.5,458.5 518.5,450.5C 503.833,450.5 489.167,450.5 474.5,450.5 Z"/></g>
<g><path style="opacity:1" fill="#8691ad" d="M 563.5,450.5 C 576.323,449.505 589.323,449.171 602.5,449.5C 602.81,452.713 602.477,455.713 601.5,458.5C 601.5,455.833 601.5,453.167 601.5,450.5C 588.833,450.5 576.167,450.5 563.5,450.5 Z"/></g>
<g><path style="opacity:1" fill="#f6f19c" d="M 228.5,450.5 C 228.334,459.173 228.5,467.84 229,476.5C 231.508,484.838 236.674,490.838 244.5,494.5C 237.833,494.5 231.167,494.5 224.5,494.5C 222.933,481.101 220.933,467.768 218.5,454.5C 218.5,453.167 218.5,451.833 218.5,450.5C 221.833,450.5 225.167,450.5 228.5,450.5 Z"/></g>
<g><path style="opacity:1" fill="#9b7ead" d="M 228.5,450.5 C 238.5,450.5 248.5,450.5 258.5,450.5C 259.194,465.19 260.194,479.856 261.5,494.5C 255.833,494.5 250.167,494.5 244.5,494.5C 236.674,490.838 231.508,484.838 229,476.5C 228.5,467.84 228.334,459.173 228.5,450.5 Z"/></g>
<g><path style="opacity:1" fill="#9a7dad" d="M 332.5,451.5 C 334.93,456.037 337.597,460.37 340.5,464.5C 340.5,474.5 340.5,484.5 340.5,494.5C 329.167,494.5 317.833,494.5 306.5,494.5C 305.62,479.825 304.62,465.158 303.5,450.5C 313.25,450.194 322.916,450.527 332.5,451.5 Z"/></g>
<g><path style="opacity:1" fill="#f5c76e" d="M 340.5,464.5 C 337.597,460.37 334.93,456.037 332.5,451.5C 334.948,450.527 337.615,450.194 340.5,450.5C 340.5,455.167 340.5,459.833 340.5,464.5 Z"/></g>
<g><path style="opacity:1" fill="#fdcc66" d="M 385.5,450.5 C 400.167,450.5 414.833,450.5 429.5,450.5C 429.5,465.167 429.5,479.833 429.5,494.5C 414.833,494.5 400.167,494.5 385.5,494.5C 385.5,479.833 385.5,465.167 385.5,450.5 Z"/></g>
<g><path style="opacity:1" fill="#fdcb67" d="M 474.5,450.5 C 489.167,450.5 503.833,450.5 518.5,450.5C 518.5,458.5 518.5,466.5 518.5,474.5C 506.635,480.929 494.969,487.596 483.5,494.5C 480.5,494.5 477.5,494.5 474.5,494.5C 474.5,479.833 474.5,465.167 474.5,450.5 Z"/></g>
<g><path style="opacity:1" fill="#ed7162" d="M 563.5,450.5 C 576.167,450.5 588.833,450.5 601.5,450.5C 601.5,453.167 601.5,455.833 601.5,458.5C 600.122,470.458 599.122,482.458 598.5,494.5C 586.833,494.5 575.167,494.5 563.5,494.5C 563.5,479.833 563.5,465.167 563.5,450.5 Z"/></g>
<g><path style="opacity:1" fill="#f7f39b" d="M 647.5,450.5 C 660.167,450.5 672.833,450.5 685.5,450.5C 683.653,465.376 681.32,480.043 678.5,494.5C 666.833,494.5 655.167,494.5 643.5,494.5C 644.368,479.646 645.701,464.98 647.5,450.5 Z"/></g>
<g><path style="opacity:1" fill="#9c7eac" d="M 518.5,474.5 C 518.5,481.167 518.5,487.833 518.5,494.5C 506.833,494.5 495.167,494.5 483.5,494.5C 494.969,487.596 506.635,480.929 518.5,474.5 Z"/></g>
<g><path style="opacity:1" fill="#e0ddb4" d="M 224.5,650.5 C 253.671,650.169 282.671,650.502 311.5,651.5C 309.097,651.448 306.764,651.781 304.5,652.5C 277.833,651.833 251.167,651.167 224.5,650.5 Z"/></g>
<g><path style="opacity:1" fill="#e1deb5" d="M 324.5,651.5 C 416.167,650.167 507.833,650.167 599.5,651.5C 597.784,651.629 596.117,651.962 594.5,652.5C 506.833,651.167 419.167,651.167 331.5,652.5C 329.236,651.781 326.903,651.448 324.5,651.5 Z"/></g>
<g><path style="opacity:1" fill="#e0ddb4" d="M 613.5,651.5 C 641.328,650.502 669.328,650.169 697.5,650.5C 672.167,651.167 646.833,651.833 621.5,652.5C 618.904,651.735 616.237,651.401 613.5,651.5 Z"/></g>
<g><path style="opacity:1" fill="#676767" d="M 311.5,651.5 C 315.833,651.5 320.167,651.5 324.5,651.5C 326.903,651.448 329.236,651.781 331.5,652.5C 335.571,653.356 339.571,654.523 343.5,656C 376.794,672.422 389.961,698.922 383,735.5C 369.675,772.094 343.508,788.261 304.5,784C 263.564,770.98 246.397,743.147 253,700.5C 261.37,674.96 278.537,658.96 304.5,652.5C 306.764,651.781 309.097,651.448 311.5,651.5 Z"/></g>
<g><path style="opacity:1" fill="#676767" d="M 599.5,651.5 C 604.167,651.5 608.833,651.5 613.5,651.5C 616.237,651.401 618.904,651.735 621.5,652.5C 634.65,654.908 645.984,660.741 655.5,670C 679.666,697.822 681.833,727.322 662,758.5C 641.109,782.519 615.276,790.019 584.5,781C 550.779,765.062 536.945,738.562 543,701.5C 550.942,675.389 568.109,659.056 594.5,652.5C 596.117,651.962 597.784,651.629 599.5,651.5 Z"/></g>
<g><path style="opacity:1" fill="#f6f19a" d="M 314.5,695.5 C 333.989,696.474 342.156,706.474 339,725.5C 333.151,737.674 323.651,742.174 310.5,739C 301.421,734.743 296.421,727.577 295.5,717.5C 296.901,705.774 303.235,698.44 314.5,695.5 Z"/></g>
<g><path style="opacity:1" fill="#f6f29a" d="M 603.5,695.5 C 615.96,694.788 624.793,700.121 630,711.5C 631.523,730.643 622.69,740.143 603.5,740C 589.863,734.905 584.363,725.072 587,710.5C 590.19,702.843 595.69,697.843 603.5,695.5 Z"/></g>
</svg>
